<?xml version="1.0" encoding="UTF-8"?>
<svg viewBox="0 0 360 48" version="1.1" xmlns="http://www.w3.org/2000/svg" xmlns:xlink="http://www.w3.org/1999/xlink">
	<polygon id="Shape" stroke="#FF0098" fill="#EC008C" points="169.933649 0.370758621 169.933649 45.3914483 200.64455 45.3914483 200.64455 44.1322839 171.198378 44.1322839 171.198378 22.6035016 198.65063 22.6035016 198.65063 21.3408233 171.198378 21.3408233 171.198378 1.62992298 200.386344 1.62992298 200.386344 0.370758621"></polygon>
	<path d="M276.113612,0.372483611 L276.113612,27.6105611 C276.113612,33.6570183 274.660448,38.1271143 271.755631,41.0223123 C268.852323,43.917998 264.626219,45.3641338 259.080841,45.3641338 C253.532946,45.3641338 249.308855,43.917998 246.404541,41.0223123 C243.50375,38.1271143 242.049076,33.6570183 242.049076,27.6105611 L242.049076,0.372483611 L243.326068,0.372483611 L243.326068,27.6105611 C243.326068,33.0263763 244.606081,37.1394499 247.165099,39.9502696 C249.72613,42.763528 253.699554,44.1701573 259.080841,44.1701573 C264.461121,44.1701573 268.432532,42.763528 270.99457,39.9502696 C273.554091,37.1394499 274.83662,33.0263763 274.83662,27.6105611 L274.83662,0.372483611 L276.113612,0.372483611 Z" id="Shape" stroke="#FF0098" fill="#EC008C"></path>
	<polygon id="Shape" stroke="#FF0098" fill="#EC008C" points="357.853399 0.394480483 339.079347 26.4079517 339.079347 45.364085 337.80004 45.364085 337.80004 26.4079517 319.088806 0.394480483 320.712403 0.394480483 338.43909 25.0840424 356.297451 0.394480483"></polygon>
	<polygon id="Shape" stroke="#FF0098" fill="#EC008C" points="243.424825 45.364085 225.102578 0.394480483 223.412539 0.394480483 204.634864 45.364085 206.061552 45.364085 212.234604 30.5950635 224.961239 30.5950635 224.961239 29.3051006 212.754058 29.3051006 224.192929 1.6563498 224.323397 1.6563498 235.368449 29.3051006 236.433934 31.9154611 241.994513 45.364085"></polygon>
	<path d="M165.253319,28.5091651 C164.646282,27.144481 163.835389,25.9885478 162.818124,25.044292 C161.802873,24.1005238 160.610946,23.3635553 159.248384,22.8372887 C157.883306,22.3124854 156.446754,22.0291109 154.933188,21.9852147 L154.933188,21.8603545 C156.356151,21.7774394 157.663847,21.4506567 158.853257,20.881957 C160.038136,20.3171593 161.064965,19.5723872 161.929716,18.6520302 C162.792957,17.7282593 163.472476,16.6537779 163.970789,15.4359023 C164.466587,14.2209532 164.715744,12.9391843 164.715744,11.5983993 C164.715744,9.70988738 164.380011,8.07255926 163.708042,6.6888536 C163.038087,5.30514796 162.109914,4.1370214 160.920001,3.19374092 C159.729081,2.24948496 158.346889,1.54568261 156.767889,1.08379708 C155.188385,0.622887025 153.490594,0.39072492 151.67351,0.39072492 L135.30566,0.39072492 L135.839209,1.63152407 L151.678543,1.63152407 C153.325497,1.63152407 154.863726,1.83295883 156.289709,2.23192648 C157.720222,2.62845545 158.966006,3.23714937 160.024546,4.05800824 C161.085099,4.8759407 161.922166,5.90067302 162.528699,7.14147216 C163.132212,8.38032037 163.437241,9.85767124 163.437241,11.582304 C163.437241,13.1752482 163.109059,14.5794388 162.463264,15.7978021 C161.811933,17.0161653 160.945169,18.0330939 159.862469,18.8500509 C158.780775,19.6699343 157.535494,20.2781405 156.128637,20.6766204 C154.718762,21.0760758 153.23892,21.2740964 151.678543,21.2740964 L144.298967,21.2740964 L144.867751,22.5919578 L151.691127,22.5919578 C153.337577,22.5919578 154.949294,22.7816869 156.531818,23.1582187 C158.11233,23.5376769 159.520695,24.1458832 160.755406,24.9838127 C161.993641,25.8222301 162.987752,26.9147576 163.745793,28.258469 C164.505848,29.5992539 164.885371,31.2575546 164.885371,33.2289816 C164.885371,35.0774992 164.536552,36.6841 163.84445,38.0473207 C163.15134,39.4110292 162.21008,40.5469653 161.017147,41.4468373 C159.824214,42.3501234 158.417358,43.0207598 156.792049,43.4631359 C155.928305,43.6977366 155.021274,43.8635667 154.076994,43.971844 L154.560711,45.0936357 C155.416905,44.9663367 156.245414,44.8009943 157.042716,44.5771237 C158.924229,44.0523204 160.53645,43.2856001 161.876865,42.278914 C163.216272,41.2673505 164.268772,39.9992383 165.024799,38.4657978 C165.78284,36.9352838 166.161357,35.1565124 166.161357,33.1411892 C166.161357,31.4185073 165.856832,29.8767754 165.253319,28.5091651" id="Shape" stroke="#FF0098" fill="#EC008C"></path>
	<polygon id="Shape" stroke="#2B2B2B" fill="#2B2B2B" points="1.27930766 21.2738525 1.27930766 0.372239744 0 0.372239744 0 45.3430149 1.27930766 45.3430149 1.27930766 22.5684977 22.3353346 22.5684977 22.3353346 21.2738525"></polygon>
	<polygon id="Shape" stroke="#2B2B2B" fill="#2B2B2B" points="33.8080304 0.372239744 33.8080304 17.0738645 33.8080304 21.2738525 33.8080304 22.5696683 33.8080304 28.1918931 33.8080304 45.3430149 35.087338 45.3430149 35.087338 0.372239744"></polygon>
	<path d="M73.425847,0.372483611 L73.425847,28.5787161 C73.425847,34.6227346 71.9726832,39.0947815 69.0693756,41.9904672 C66.1660679,44.886153 61.9399635,46.3347274 56.3971024,46.3347274 C50.8476977,46.3347274 46.6210898,44.886153 43.7177822,41.9904672 C40.8159847,39.0947815 39.3643309,34.6227346 39.3643309,28.5787161 L39.3643309,0.372483611 L40.6413232,0.372483611 L40.6413232,28.5787161 C40.6413232,33.993068 41.9193221,38.1076048 44.4818635,40.9198878 C47.0408815,43.7302198 51.0143056,45.1363613 56.3971024,45.1363613 C61.7748655,45.1363613 65.748793,43.7302198 68.3068043,40.9198878 C70.8663257,38.1076048 72.1488547,33.993068 72.1488547,28.5787161 L72.1488547,0.372483611 L73.425847,0.372483611 Z" id="Shape" stroke="#2B2B2B" fill="#2B2B2B"></path>
	<path d="M92.213388,44.0438338 C94.9395173,44.0438338 97.5262194,43.615602 99.972991,42.7537734 C102.418252,41.8958466 104.564526,40.5945682 106.404764,38.850426 C108.245505,37.107747 109.693132,34.9061089 110.754692,32.241122 C111.814741,29.5756475 112.343256,26.4356063 112.343256,22.8263635 C112.343256,18.6323258 111.802661,15.1664773 110.720967,12.4414989 C109.64028,9.70969229 108.210271,7.53780604 106.434964,5.92145055 C104.660665,4.30899694 102.655329,3.18379111 100.427514,2.55607551 C98.1976848,1.92494575 95.9155079,1.61084408 93.5754459,1.61084408 L78.9642787,1.61084408 L78.9642787,44.0438338 L92.213388,44.0438338 Z M93.9046351,0.390529826 C96.1943623,0.390529826 98.5198271,0.738285247 100.875996,1.43135742 C103.233675,2.12247863 105.351761,3.32084479 107.23277,5.01670117 C109.114786,6.71889812 110.647479,9.01857106 111.839405,11.9127936 C113.028815,14.8089671 113.622765,18.4601552 113.622765,22.8673333 C113.622765,26.8965163 113.017741,30.3384659 111.807191,33.1936695 C110.596137,36.04741 108.975359,38.3665924 106.940325,40.1521921 C104.908815,41.9363286 102.594424,43.2473616 100.001178,44.0838281 C97.4079328,44.9227331 94.7024407,45.3431612 91.8937624,45.3431612 L77.6847697,45.3431612 L77.6847697,0.390529826 L93.9046351,0.390529826 Z" id="Shape" stroke="#2B2B2B" fill="#2B2B2B"></path>
	<polygon id="Shape" stroke="#2B2B2B" fill="#2B2B2B" points="149.413229 45.364085 131.089774 0.394480483 129.397319 0.394480483 110.622059 45.364085 112.051163 45.364085 118.224215 30.5950635 130.949642 30.5950635 130.949642 29.3051006 118.74367 29.3051006 130.177709 1.6563498 130.310592 1.6563498 141.354436 29.3051006 141.35202 29.3051006 142.42113 31.9154611 147.980501 45.364085"></polygon>
    <polygon id="Shape" stroke="#FF0098" stroke-width="0.5" fill="#EC008C" fill-rule="nonzero" points="280.147841 1.03430871 314.755589 1.03430871 314.755589 2.2938369 298.05694 2.2938369 298.05694 46.026154 296.77884 46.026154 296.77884 2.2938369 280.147841 2.2938369"></polygon>
</svg>