<svg width="108" height="79" viewBox="0 0 108 79" fill="none" xmlns="http://www.w3.org/2000/svg">
<g clip-path="url(#clip0)">
<path d="M96.2999 28.0998L102.8 27.9998C99.4999 22.1998 94.9999 16.8998 89.4999 12.3998C76.5999 1.99979 60.4999 -1.70021 45.3999 0.699788C58.5999 -0.000212252 72.1999 3.99979 83.2999 12.9998C88.5999 17.3998 92.9999 22.4998 96.2999 28.0998Z" fill="black"/>
<path d="M29.1 61.6992L23 63.7992C27.9 68.2992 33.8 72.0992 40.4 74.5992C55.8 80.5992 72.3 79.2992 86 72.3992C73.6 76.9992 59.5 77.2992 46.1 72.0992C39.7 69.6992 34 66.0992 29.1 61.6992Z" fill="black"/>
<path d="M54.0002 18.5989C55.7002 18.4989 56.6002 17.6989 61.0002 18.5989C61.0002 18.5989 67.1002 18.2989 78.3002 28.8989C81.6002 32.0989 83.5002 37.2989 85.3002 37.7989C86.8002 38.1989 94.0002 38.5989 94.4002 41.4989C94.7002 43.8989 89.8002 48.5989 83.9002 48.2989C85.0002 46.6989 88.4002 46.2989 90.0002 42.0989C88.1002 40.9989 85.2002 40.8989 82.5002 41.5989C77.3002 29.5989 62.2002 21.2989 56.9002 20.5989C52.6002 19.9989 51.0002 20.6989 48.2002 20.5989C50.2002 19.9989 53.0002 18.5989 54.0002 18.5989Z" fill="black"/>
<path d="M35.0001 3.99961C37.1001 3.99961 37.8001 3.89961 39.9001 5.29961L35.0001 5.69961C34.8001 5.69961 29.3001 7.09961 26.9001 11.7996C27.9001 12.5996 27.9001 12.7996 28.9001 12.8996C30.6001 12.8996 34.6001 7.49961 41.8001 7.49961C43.1001 7.49961 44.3001 7.99961 44.3001 7.99961C45.0001 8.39961 44.8001 9.19961 44.8001 10.1996C44.8001 10.1996 40.3001 20.6996 32.3001 20.6996H30.6001C35.7001 19.4996 39.3001 14.7996 41.9001 10.2996L36.6001 11.7996C33.0001 12.8996 28.9001 16.1996 27.5001 16.1996C25.9001 16.1996 24.9001 14.8996 20.7001 14.8996C17.4001 14.8996 13.7001 16.6996 12.0001 17.8996C12.8001 19.5996 14.4001 18.7996 15.8001 18.6996C15.7001 18.7996 15.4001 20.2996 11.4001 20.5996C11.4001 20.7996 12.2001 23.9996 14.3001 26.0996C16.7001 28.5996 20.5001 29.8996 21.8001 29.9996C21.8001 30.4996 22.0001 32.5996 23.5001 35.3996C29.7001 47.4996 33.1001 37.4996 40.6001 49.5996V50.9996C36.6001 47.5996 30.2001 46.3996 26.8001 45.8996C21.9001 45.0996 16.9001 45.8996 16.7001 45.8996C14.9001 46.2996 10.2001 47.1996 10.2001 47.2996C13.9001 42.7996 22.9001 42.5996 24.6001 41.8996C18.7001 35.9996 19.4001 33.9996 18.7001 33.1996C18.1001 32.4996 9.6001 31.4996 9.6001 19.6996C9.6001 15.3996 17.7001 12.2996 20.4001 12.2996C25.4001 12.0996 27.0001 3.99961 35.0001 3.99961Z" fill="black"/>
<path d="M22.1998 16.4994C23.2998 16.3994 23.1998 16.2994 24.5998 16.8994L24.6998 18.3994C23.0998 18.0994 20.9998 18.2994 18.7998 18.1994C19.9998 17.1994 20.3998 16.6994 22.1998 16.4994Z" fill="black"/>
<path d="M7.3 32.5003C10.7 32.5003 14.9 35.3003 15.4 35.7003C13.1 35.9003 12.8 35.5003 7.7 35.9003C7.7 35.9003 3.4 36.2003 0 36.9003C2.3 33.5003 1.9 32.4003 7.3 32.5003Z" fill="black"/>
<path d="M72.5999 55.8996L78.1999 58.5996C84.7999 61.7996 91.0999 53.3996 93.3999 51.8996C94.4999 57.1996 99.6999 67.9996 107.3 69.9996C106.2 71.1996 105 71.0996 103.5 71.0996C99.7999 71.0996 92.8999 65.0996 92.8999 60.4996C92.8999 60.4996 92.6999 57.0996 92.6999 56.2996C90.5999 60.2996 86.2999 62.9996 82.6999 62.8996C79.8999 62.8996 79.2999 62.6996 76.8999 61.5996C76.3999 61.3996 63.0999 53.2996 62.3999 47.5996C62.9999 47.9996 69.6999 54.7996 72.5999 55.8996Z" fill="black"/>
<path d="M96.0001 74.4992L93.8001 74.7992C88.5001 73.8992 87.5001 66.1992 89.0001 63.9992C89.0001 63.9992 89.9001 62.3992 90.7001 61.6992C90.8001 65.5992 91.3001 68.4992 91.6001 69.3992C92.6001 71.5992 91.0001 70.6992 96.0001 74.4992Z" fill="black"/>
<path d="M23.7999 61.7996L20.6999 58.2996L16.2999 59.9996C16.9999 58.5996 17.9999 57.3996 18.7999 55.9996C17.7999 54.7996 16.8999 53.5996 15.8999 52.3996C17.3999 52.6996 19.0999 53.0996 20.5999 53.4996L23.0999 49.5996C23.2999 51.0996 23.3999 52.6996 23.4999 54.1996L28.0999 55.3996L23.5999 57.1996L23.7999 61.7996Z" fill="black"/>
<path d="M106 41.4L102 39.1L98.4001 42C98.6001 40.5 99.2001 39 99.5001 37.4C98.2001 36.5 96.9001 35.7 95.6001 34.9C97.1001 34.7 98.8001 34.6 100.4 34.5L101.5 30C102.1 31.3 102.7 32.8 103.3 34.2L108 34L104.3 37.1L106 41.4Z" fill="black"/>
<path d="M86.7002 77.4V74.5H87.8002C88.5002 74.5 88.7002 74.9 88.7002 75.4C88.7002 75.8 88.5002 76 88.2002 76.1L88.8002 77.4H88.2002L87.7002 76.2H87.2002V77.4H86.7002ZM87.3002 75.8H87.7002C88.1002 75.8 88.3002 75.7 88.3002 75.4C88.3002 75.1 88.1002 75 87.8002 75H87.3002V75.8Z" fill="black"/>
<path d="M87.7 73.6992C88.9 73.6992 89.9 74.6992 89.9 75.8992C89.9 77.0992 88.9 78.0992 87.7 78.0992C86.5 78.0992 85.5 77.0992 85.5 75.8992C85.5 74.6992 86.5 73.6992 87.7 73.6992ZM87.7 73.1992C86.2 73.1992 85 74.3992 85 75.8992C85 77.3992 86.2 78.5992 87.7 78.5992C89.2 78.5992 90.4 77.3992 90.4 75.8992C90.4 74.4992 89.2 73.1992 87.7 73.1992Z" fill="black"/>
</g>
<defs>
<clipPath id="clip0">
<rect width="108" height="78.6" fill="white"/>
</clipPath>
</defs>
</svg>
